<?xml version="1.0" encoding="UTF-8" standalone="no"?>
<!-- Created with Inkscape (http://www.inkscape.org/) -->

<svg
   xmlns:osb="http://www.openswatchbook.org/uri/2009/osb"
   xmlns:dc="http://purl.org/dc/elements/1.1/"
   xmlns:cc="http://creativecommons.org/ns#"
   xmlns:rdf="http://www.w3.org/1999/02/22-rdf-syntax-ns#"
   xmlns:svg="http://www.w3.org/2000/svg"
   xmlns="http://www.w3.org/2000/svg"
   xmlns:xlink="http://www.w3.org/1999/xlink"
   xmlns:sodipodi="http://sodipodi.sourceforge.net/DTD/sodipodi-0.dtd"
   xmlns:inkscape="http://www.inkscape.org/namespaces/inkscape"
   width="210mm"
   height="297mm"
   viewBox="0 0 210 297"
   version="1.1"
   id="svg8"
   inkscape:version="0.92.3 (2405546, 2018-03-11)"
   sodipodi:docname="steemg.svg"
   inkscape:export-filename="C:\Users\bblpr\Pictures\steemg2.png"
   inkscape:export-xdpi="96"
   inkscape:export-ydpi="96">
  <defs
     id="defs2">
    <linearGradient
       inkscape:collect="always"
       id="linearGradient4551">
      <stop
         style="stop-color:#585858;stop-opacity:1"
         offset="0"
         id="stop4547" />
      <stop
         style="stop-color:#e6e6e6;stop-opacity:0.98823529"
         offset="1"
         id="stop4549" />
    </linearGradient>
    <linearGradient
       id="linearGradient4535">
      <stop
         style="stop-color:#5f5f5f;stop-opacity:0;"
         offset="0"
         id="stop4533" />
    </linearGradient>
    <linearGradient
       id="linearGradient4527"
       osb:paint="solid">
      <stop
         style="stop-color:#000000;stop-opacity:0;"
         offset="0"
         id="stop4525" />
    </linearGradient>
    <linearGradient
       inkscape:collect="always"
       xlink:href="#linearGradient4551"
       id="linearGradient4553"
       x1="52.258591"
       y1="65.060638"
       x2="167.18324"
       y2="230.10149"
       gradientUnits="userSpaceOnUse" />
    <linearGradient
       inkscape:collect="always"
       xlink:href="#linearGradient4551"
       id="linearGradient4575"
       gradientUnits="userSpaceOnUse"
       x1="164.27719"
       y1="236.77483"
       x2="39.311401"
       y2="63.86784"
       gradientTransform="matrix(-0.96711054,0,0,-0.96577152,206.41451,294.5246)" />
  </defs>
  <sodipodi:namedview
     id="base"
     pagecolor="#ffffff"
     bordercolor="#666666"
     borderopacity="1.0"
     inkscape:pageopacity="0.0"
     inkscape:pageshadow="2"
     inkscape:zoom="0.7198092"
     inkscape:cx="-215.81196"
     inkscape:cy="561.25984"
     inkscape:document-units="mm"
     inkscape:current-layer="layer3"
     showgrid="false"
     inkscape:window-width="1920"
     inkscape:window-height="1001"
     inkscape:window-x="-9"
     inkscape:window-y="-9"
     inkscape:window-maximized="1" />
  <metadata
     id="metadata5">
    <rdf:RDF>
      <cc:Work
         rdf:about="">
        <dc:format>image/svg+xml</dc:format>
        <dc:type
           rdf:resource="http://purl.org/dc/dcmitype/StillImage" />
        <dc:title />
      </cc:Work>
    </rdf:RDF>
  </metadata>
  <g
     inkscape:label="Calque 1"
     inkscape:groupmode="layer"
     id="layer1">
    <path
       style="color:#000000;font-style:normal;font-variant:normal;font-weight:normal;font-stretch:normal;font-size:medium;line-height:normal;font-family:sans-serif;font-variant-ligatures:normal;font-variant-position:normal;font-variant-caps:normal;font-variant-numeric:normal;font-variant-alternates:normal;font-feature-settings:normal;text-indent:0;text-align:start;text-decoration:none;text-decoration-line:none;text-decoration-style:solid;text-decoration-color:#000000;letter-spacing:normal;word-spacing:normal;text-transform:none;writing-mode:lr-tb;direction:ltr;text-orientation:mixed;dominant-baseline:auto;baseline-shift:baseline;text-anchor:start;white-space:normal;shape-padding:0;clip-rule:nonzero;display:inline;overflow:visible;visibility:visible;opacity:1;isolation:auto;mix-blend-mode:normal;color-interpolation:sRGB;color-interpolation-filters:linearRGB;solid-color:#000000;solid-opacity:1;vector-effect:none;fill:url(#linearGradient4553);fill-opacity:1;fill-rule:nonzero;stroke:none;stroke-width:13.76599979;stroke-linecap:butt;stroke-linejoin:miter;stroke-miterlimit:4;stroke-dasharray:none;stroke-dashoffset:0;stroke-opacity:1;color-rendering:auto;image-rendering:auto;shape-rendering:auto;text-rendering:auto;enable-background:accumulate"
       d="m 106.22852,43.464844 c -2.18412,0 -2.13837,0.323168 -2.4668,0.441406 -0.32843,0.118238 -0.52674,0.205743 -0.72266,0.292969 -0.39183,0.174452 -0.73891,0.345882 -1.14844,0.552734 -0.81905,0.413705 -1.84304,0.957534 -3.107417,1.642578 -2.528754,1.370089 -5.98196,3.290316 -10.080078,5.597657 -8.196236,4.61468 -18.947257,10.762914 -29.675781,16.957031 -10.728525,6.194116 -21.42889,12.429895 -29.523438,17.220703 -4.047274,2.395404 -7.437763,4.426719 -9.888672,5.93164 -1.225454,0.752461 -2.208758,1.368628 -2.976562,1.871094 -0.383902,0.251234 -0.705739,0.464688 -1.052734,0.716797 -0.173498,0.126055 -0.346669,0.253204 -0.613282,0.478516 -0.266612,0.225311 -0.525132,0.02452 -1.617187,1.916015 -1.092056,1.891496 -0.789744,2.015826 -0.851563,2.359375 -0.06182,0.343549 -0.085,0.558201 -0.107422,0.771481 -0.04483,0.42656 -0.07008,0.81145 -0.0957,1.26954 -0.05125,0.91617 -0.09194,2.07616 -0.130859,3.51367 -0.07785,2.87501 -0.140563,6.82655 -0.191406,11.52929 -0.101688,9.40549 -0.152344,21.78951 -0.152344,34.17774 0,12.38823 0.05066,24.77224 0.152344,34.17773 0.05084,4.70275 0.11356,8.65624 0.191406,11.53125 0.03892,1.43751 0.07961,2.59555 0.130859,3.51172 0.02562,0.45809 0.05087,0.84492 0.0957,1.27149 0.02242,0.21328 0.0456,0.42793 0.107422,0.77148 0.06182,0.34355 -0.240493,0.46593 0.851563,2.35742 1.092055,1.8915 1.350575,1.69071 1.617187,1.91602 0.266613,0.22531 0.439784,0.35246 0.613282,0.47851 0.346995,0.25211 0.668832,0.46752 1.052734,0.71875 0.767804,0.50247 1.751108,1.11668 2.976562,1.86914 2.450909,1.50492 5.841398,3.53624 9.888672,5.93164 8.094548,4.79081 18.794913,11.02659 29.523438,17.22071 10.728524,6.19411 21.479545,12.34235 29.675781,16.95703 4.098118,2.30734 7.551324,4.22952 10.080078,5.59961 1.264377,0.68504 2.288367,1.22887 3.107417,1.64258 0.40953,0.20685 0.75661,0.37828 1.14844,0.55273 0.19592,0.0872 0.39423,0.17278 0.72266,0.29102 0.32843,0.11823 0.28268,0.44336 2.4668,0.44336 2.18411,0 2.14031,-0.32513 2.46875,-0.44336 0.32843,-0.11824 0.52478,-0.20379 0.7207,-0.29102 0.39183,-0.17445 0.73891,-0.34588 1.14844,-0.55273 0.81905,-0.41371 1.84304,-0.95754 3.10742,-1.64258 2.52875,-1.37009 5.98391,-3.29227 10.08203,-5.59961 8.19623,-4.61468 18.94726,-10.76292 29.67578,-16.95703 10.72853,-6.19412 21.42694,-12.4299 29.52148,-17.22071 4.04728,-2.3954 7.43972,-4.42672 9.89063,-5.93164 1.22545,-0.75246 2.2068,-1.36667 2.97461,-1.86914 0.3839,-0.25123 0.70574,-0.46664 1.05273,-0.71875 0.1735,-0.12605 0.34863,-0.2532 0.61524,-0.47851 0.26661,-0.22531 0.52513,-0.0245 1.61719,-1.91602 1.09205,-1.89149 0.78779,-2.01387 0.8496,-2.35742 0.0618,-0.34355 0.085,-0.5582 0.10743,-0.77148 0.0448,-0.42657 0.0701,-0.8134 0.0957,-1.27149 0.0513,-0.91617 0.0939,-2.07421 0.13281,-3.51172 0.0778,-2.87501 0.14056,-6.8285 0.19141,-11.53125 0.10169,-9.40549 0.15234,-21.7895 0.15234,-34.17773 0,-12.38823 -0.0507,-24.77225 -0.15234,-34.17774 -0.0508,-4.70274 -0.11356,-8.65428 -0.19141,-11.52929 -0.0389,-1.43751 -0.0816,-2.5975 -0.13281,-3.51367 -0.0256,-0.45809 -0.0509,-0.84298 -0.0957,-1.26954 -0.0224,-0.21328 -0.0456,-0.427932 -0.10743,-0.771481 -0.0618,-0.343549 0.24245,-0.467879 -0.8496,-2.359375 -1.09206,-1.891495 -1.35058,-1.690704 -1.61719,-1.916015 -0.26661,-0.225312 -0.44174,-0.352461 -0.61524,-0.478516 -0.34699,-0.252109 -0.66883,-0.465563 -1.05273,-0.716797 -0.76781,-0.502466 -1.74916,-1.118633 -2.97461,-1.871094 -2.45091,-1.504921 -5.84335,-3.536236 -9.89063,-5.93164 -8.09454,-4.790808 -18.79295,-11.026587 -29.52148,-17.220703 -10.72852,-6.194117 -21.47955,-12.342351 -29.67578,-16.957031 -4.09812,-2.307341 -7.55328,-4.227568 -10.08203,-5.597657 -1.26438,-0.685044 -2.28837,-1.228873 -3.10742,-1.642578 -0.40953,-0.206852 -0.75661,-0.378282 -1.14844,-0.552734 -0.19592,-0.08723 -0.39227,-0.174731 -0.7207,-0.292969 -0.32844,-0.118238 -0.28464,-0.441406 -2.46875,-0.441406 z m 1.93164,13.542968 c -0.0433,0.02508 -0.0463,0.03931 -0.125,0.06445 0.0139,-0.0071 0.0489,-0.02636 0.0625,-0.0332 0.0346,-0.0175 0.0302,-0.01511 0.0625,-0.03125 z m -3.85547,0.0059 c 0.0282,0.0141 0.0248,0.01029 0.0547,0.02539 0.0132,0.0067 0.047,0.02633 0.0605,0.0332 -0.0727,-0.02333 -0.0734,-0.03524 -0.11523,-0.05859 z m 1.92383,1.013672 c 0.33277,0.177722 0.50113,0.260734 0.88867,0.470703 2.40465,1.302848 5.82213,3.202871 9.88476,5.490234 8.12528,4.574727 18.84893,10.707476 29.54493,16.882813 10.69599,6.175337 21.37006,12.397154 29.39453,17.146484 4.01223,2.374662 7.36859,4.383392 9.69921,5.814452 0.37488,0.23018 0.52983,0.3342 0.84961,0.5332 0.0125,0.377 0.0252,0.5634 0.0371,1.00391 0.074,2.73391 0.1371,6.64461 0.1875,11.30664 0.10081,9.32406 0.15235,21.67862 0.15235,34.0293 0,12.35067 -0.0515,24.70524 -0.15235,34.0293 -0.0504,4.66202 -0.11347,8.57272 -0.1875,11.30664 -0.0119,0.44023 -0.0246,0.6271 -0.0371,1.0039 -0.31978,0.19901 -0.47473,0.30302 -0.84961,0.5332 -2.33062,1.43107 -5.68698,3.44175 -9.69921,5.81641 -8.02447,4.74933 -18.69854,10.9692 -29.39453,17.14453 -10.696,6.17534 -21.41965,12.31004 -29.54493,16.88477 -4.06263,2.28736 -7.48011,4.18738 -9.88476,5.49023 -0.38754,0.20997 -0.5559,0.29298 -0.88867,0.47071 -0.33246,-0.17756 -0.49964,-0.26098 -0.88672,-0.47071 -2.40465,-1.30285 -5.822132,-3.20287 -9.884769,-5.49023 -8.125274,-4.57473 -18.850878,-10.70943 -29.546875,-16.88477 -10.695997,-6.17533 -21.370064,-12.3952 -29.394531,-17.14453 -4.012233,-2.37466 -7.366641,-4.38534 -9.697266,-5.81641 -0.375678,-0.23067 -0.531211,-0.33579 -0.851562,-0.53515 -0.01244,-0.3762 -0.02521,-0.56257 -0.03711,-1.00195 -0.07403,-2.73392 -0.137097,-6.64462 -0.1875,-11.30664 -0.100808,-9.32406 -0.150391,-21.67863 -0.150391,-34.0293 0,-12.35068 0.04958,-24.70524 0.150391,-34.0293 0.0504,-4.66203 0.113474,-8.57273 0.1875,-11.30664 0.0119,-0.43965 0.02466,-0.62556 0.03711,-1.00195 0.320351,-0.19937 0.475884,-0.30448 0.851562,-0.53516 2.330625,-1.43106 5.685033,-3.43979 9.697266,-5.814452 8.024467,-4.74933 18.698534,-10.971148 29.394531,-17.146484 10.695997,-6.175337 21.421601,-12.308086 29.546875,-16.882813 4.062637,-2.287363 7.480119,-4.187386 9.884769,-5.490234 0.38708,-0.209724 0.55426,-0.293148 0.88672,-0.470703 z m 80.17773,44.130856 c 0.003,0.0479 0.003,0.0426 0.006,0.0957 8.7e-4,0.0155 0.001,0.0563 0.002,0.0723 -0.0213,-0.0975 -0.0105,-0.11312 -0.008,-0.16797 z m -160.355469,0.004 c 0.0022,0.0542 0.01291,0.069 -0.0078,0.16406 8.69e-4,-0.0159 0.0011,-0.0568 0.002,-0.0723 0.0028,-0.0509 0.003,-0.0456 0.0059,-0.0918 z m -1.814453,3.28906 c -0.06868,0.0625 -0.08412,0.0608 -0.130859,0.0859 0.03582,-0.0237 0.03103,-0.0212 0.07031,-0.0469 0.01292,-0.008 0.04725,-0.0304 0.06055,-0.0391 z m 163.984372,0 c 0.0133,0.009 0.0476,0.0306 0.0606,0.0391 0.0384,0.0251 0.0332,0.0236 0.0684,0.0469 -0.0463,-0.0252 -0.0613,-0.0244 -0.12891,-0.0859 z M 24.109375,195.875 c 0.04592,0.0252 0.0602,0.0233 0.126953,0.084 -0.0133,-0.009 -0.04763,-0.0306 -0.06055,-0.0391 -0.03734,-0.0244 -0.03218,-0.0223 -0.06641,-0.0449 z m 164.236325,0.002 c -0.0331,0.0219 -0.0285,0.0194 -0.0644,0.043 -0.0129,0.008 -0.0472,0.0304 -0.0606,0.0391 0.0652,-0.0593 0.0798,-0.0569 0.125,-0.082 z m -162.302731,3.20703 c 0.0209,0.0958 0.01018,0.11158 0.0078,0.16602 -0.0029,-0.0463 -0.003,-0.0407 -0.0059,-0.0918 -8.89e-4,-0.0159 -0.0011,-0.0579 -0.002,-0.0742 z m 160.371091,0 c -8.9e-4,0.0164 -0.001,0.0583 -0.002,0.0742 -0.003,0.0533 -0.003,0.0477 -0.006,0.0957 -0.003,-0.055 -0.0136,-0.0716 0.008,-0.16993 z m -81.98828,45.25391 c -0.0148,0.008 -0.052,0.0279 -0.0664,0.0352 -0.0429,0.0217 -0.0388,0.0175 -0.0781,0.0371 0.0455,-0.0284 0.054,-0.0434 0.14453,-0.0723 z m 3.60547,0 c 0.0956,0.0304 0.106,0.0464 0.15234,0.0762 -0.0428,-0.0213 -0.0387,-0.0172 -0.0859,-0.041 -0.0144,-0.007 -0.0516,-0.0277 -0.0664,-0.0352 z"
       id="path4531"
       inkscape:connector-curvature="0" />
  </g>
  <g
     inkscape:groupmode="layer"
     id="layer2"
     inkscape:label="Calque 2"
     style="display:inline">
    <path
       style="color:#000000;font-style:normal;font-variant:normal;font-weight:normal;font-stretch:normal;font-size:medium;line-height:normal;font-family:sans-serif;font-variant-ligatures:normal;font-variant-position:normal;font-variant-caps:normal;font-variant-numeric:normal;font-variant-alternates:normal;font-feature-settings:normal;text-indent:0;text-align:start;text-decoration:none;text-decoration-line:none;text-decoration-style:solid;text-decoration-color:#000000;letter-spacing:normal;word-spacing:normal;text-transform:none;writing-mode:lr-tb;direction:ltr;text-orientation:mixed;dominant-baseline:auto;baseline-shift:baseline;text-anchor:start;white-space:normal;shape-padding:0;clip-rule:nonzero;display:inline;overflow:visible;visibility:visible;opacity:1;isolation:auto;mix-blend-mode:normal;color-interpolation:sRGB;color-interpolation-filters:linearRGB;solid-color:#000000;solid-opacity:1;vector-effect:none;fill:url(#linearGradient4575);fill-opacity:1;fill-rule:nonzero;stroke:none;stroke-width:23.92714119;stroke-linecap:round;stroke-linejoin:round;stroke-miterlimit:4;stroke-dasharray:none;stroke-dashoffset:0;stroke-opacity:1;color-rendering:auto;image-rendering:auto;shape-rendering:auto;text-rendering:auto;enable-background:accumulate"
       d="m 106.51758,66.880859 a 11.964767,11.964767 0 0 0 -6.44922,1.638672 L 37.271484,105.37891 a 11.964767,11.964767 0 0 0 -5.90625,10.40429 l 0.511719,69.91407 a 11.964767,11.964767 0 0 0 5.982422,10.27343 l 61.892578,35.72657 a 11.964767,11.964767 0 0 0 11.935547,0.0137 l 63.77344,-36.60352 a 11.964767,11.964767 0 0 0 6.00781,-10.36523 l 0.0332,-35.88281 a 11.964767,11.964767 0 0 0 -11.91601,-11.97461 l -83.613284,-0.33594 a 11.964767,11.964767 0 1 0 -0.0957,23.92578 l 71.685547,0.28906 -0.0137,17.03711 -51.79883,29.73047 -49.996094,-28.85742 -0.412109,-56.15821 50.765623,-29.79687 57.88086,34.14844 a 11.964767,11.964767 0 1 0 12.1582,-20.60742 L 112.20312,68.533203 a 11.964767,11.964767 0 0 0 -5.68554,-1.652344 z"
       clip-path="none"
       id="path4557"
       inkscape:connector-curvature="0" />
  </g>
  <g
     inkscape:groupmode="layer"
     id="layer3"
     inkscape:label="Calque 3"
     style="display:inline">
    <g
       aria-label="steemg"
       transform="matrix(0.65508701,0,0,0.55716895,-128.29564,-165.84066)"
       clip-path="none"
       style="font-style:normal;font-weight:normal;font-size:40px;line-height:1.25;font-family:sans-serif;letter-spacing:0px;word-spacing:0px;fill:#ffffff;fill-opacity:1;stroke:none"
       id="flowRoot849">
      <path
         d="m 328.70063,555.92594 q 3.09333,0 5.33333,1.17333 3.62667,2.02667 3.09333,4.58667 -0.21333,1.6 -2.02666,2.13333 -1.6,0.42667 -2.66667,-0.74666 -1.49333,-2.24 -4.8,-1.81334 -0.21333,0 -0.32,0.10667 -1.81333,0.21333 -2.45333,1.81333 -0.32,0.85334 0.21333,1.81334 1.28,0.85333 4.16,0.74666 1.70667,0 2.56,0.21334 3.41333,0.32 5.54667,3.41333 1.38666,1.92 1.28,4.16 0.10666,3.41333 -2.77334,5.65333 -1.17333,0.85334 -2.45333,1.28 -5.65333,1.81334 -10.02667,0 -3.52,-1.70666 -4.16,-4.05333 -0.42666,-1.81333 1.38667,-2.88 1.70667,-1.06667 3.09333,0.10667 0.21334,0.10666 0.32,0.21333 1.81334,2.34667 6.4,1.6 1.81334,-0.10667 2.45334,-1.38667 0.42666,-0.74666 0,-1.6 -0.96,-1.06666 -3.41334,-1.06666 -5.33333,0.21333 -7.78666,-2.13334 -2.66667,-2.24 -2.45334,-5.86666 0,-2.34667 1.38667,-4.16 2.45333,-3.41334 7.89333,-3.30667 z"
         style="font-style:normal;font-variant:normal;font-weight:normal;font-stretch:normal;font-size:53.33333588px;font-family:Ubuntu-Title;-inkscape-font-specification:Ubuntu-Title;fill:#ffffff;fill-opacity:1"
         id="path4901" />
      <path
         d="m 348.11729,546.00594 q 1.28,0 2.13334,0.85333 0.85333,0.85333 0.74666,2.02667 v 7.36 h 3.52 q 1.70667,0 2.56,1.49333 0.85334,1.28 0,2.77334 -0.85333,1.49333 -2.56,1.38666 h -3.52 v 11.09334 q 0,1.6 0.53334,2.13333 0.32,0.42667 1.06666,0.53333 0.85334,0.32 2.13334,-0.10666 1.70666,-0.53334 2.98666,0.74666 1.06667,1.06667 0.64,2.77334 -0.42666,1.6 -2.02666,2.02666 l -2.02667,0.32 q -4.69333,0.32 -7.04,-2.56 -1.92,-2.24 -1.92,-5.86666 v -11.09334 h -1.70667 q -1.70666,0.10667 -2.45333,-1.38666 -0.85333,-1.49334 0,-2.77334 0.74667,-1.49333 2.45333,-1.49333 h 1.70667 v -7.36 q 0,-1.70667 1.49333,-2.66667 0.64,-0.21333 1.28,-0.21333 z"
         style="font-style:normal;font-variant:normal;font-weight:normal;font-stretch:normal;font-size:53.33333588px;font-family:Ubuntu-Title;-inkscape-font-specification:Ubuntu-Title;fill:#ffffff;fill-opacity:1"
         id="path4903" />
      <path
         d="m 372.10146,575.55261 h -0.96 q -3.52,-0.53334 -4.26667,-4.16 h 11.62667 q 1.92,0 2.56,-1.70667 0.21334,-0.53333 0.21334,-1.06667 v -1.06666 q 0,-7.46667 -5.12,-10.66667 -1.92001,-1.06667 -4.37334,-1.06667 -3.30667,0 -5.86667,1.81334 -4.69333,3.09333 -5.01333,10.34666 -0.10667,0.64 0,1.17334 0.32,6.93333 5.01333,10.34666 2.56,1.81334 5.22667,1.81334 3.73333,0.10666 5.33334,-0.21334 2.24,-0.53333 3.73333,-1.81333 1.38667,-0.96 1.06667,-2.56 -0.21334,-1.70667 -1.6,-2.34667 -1.6,-0.53333 -2.88,0.53334 -0.96,0.64 -4.69334,0.64 z m -0.42667,-13.97334 q 1.06667,0 1.81334,0.42667 1.70666,0.85333 2.13333,3.52 v 0.21333 h -8.74667 q 0.42667,-2.34666 2.13334,-3.52 1.17333,-0.64 2.13333,-0.64 h 0.32 z"
         style="font-style:normal;font-variant:normal;font-weight:normal;font-stretch:normal;font-size:53.33333588px;font-family:Ubuntu-Title;-inkscape-font-specification:Ubuntu-Title;fill:#ffffff;fill-opacity:1"
         id="path4905" />
      <path
         d="m 397.20563,575.55261 h -0.96 q -3.52,-0.53334 -4.26667,-4.16 h 11.62667 q 1.92,0 2.56,-1.70667 0.21333,-0.53333 0.21333,-1.06667 v -1.06666 q 0,-7.46667 -5.12,-10.66667 -1.92,-1.06667 -4.37333,-1.06667 -3.30667,0 -5.86667,1.81334 -4.69333,3.09333 -5.01333,10.34666 -0.10667,0.64 0,1.17334 0.32,6.93333 5.01333,10.34666 2.56,1.81334 5.22667,1.81334 3.73333,0.10666 5.33333,-0.21334 2.24,-0.53333 3.73333,-1.81333 1.38667,-0.96 1.06667,-2.56 -0.21333,-1.70667 -1.6,-2.34667 -1.6,-0.53333 -2.88,0.53334 -0.96,0.64 -4.69333,0.64 z m -0.42667,-13.97334 q 1.06667,0 1.81333,0.42667 1.70667,0.85333 2.13334,3.52 v 0.21333 h -8.74667 q 0.42667,-2.34666 2.13333,-3.52 1.17334,-0.64 2.13334,-0.64 h 0.32 z"
         style="font-style:normal;font-variant:normal;font-weight:normal;font-stretch:normal;font-size:53.33333588px;font-family:Ubuntu-Title;-inkscape-font-specification:Ubuntu-Title;fill:#ffffff;fill-opacity:1"
         id="path4907" />
      <path
         d="m 419.69646,555.92594 q 3.62667,0 6.18667,2.24 2.56,-2.24 6.08,-2.24 4.48,0 7.04,3.2 2.02667,2.45333 1.92,5.54667 v 13.76 q 0,1.6 -1.38667,2.45333 -1.38666,0.85333 -2.88,0 -1.38666,-0.85333 -1.38666,-2.45333 v -13.76 q -0.32,-2.29334 -1.70667,-2.88 -0.53333,-0.21334 -1.6,-0.21334 -2.02667,0 -2.66667,1.06667 -0.53333,0.96 -0.64,2.02667 v 5.92 q 0,1.6 -1.38666,2.45333 -1.38667,0.85333 -2.88,0 -1.38667,-0.74667 -1.38667,-2.45333 v -5.92 q -0.32,-2.29334 -1.70667,-2.88 -0.53333,-0.21334 -1.6,-0.21334 -1.92,0 -2.56,1.06667 -0.64,1.12 -0.74666,2.02667 v 13.76 q 0.10666,1.6 -1.38667,2.45333 -1.38667,0.85333 -2.88,0 -1.38667,-0.85333 -1.38667,-2.45333 v -13.76 q 0.42667,-6.61334 5.97334,-8.32 1.38666,-0.42667 2.98666,-0.42667 z"
         style="font-style:normal;font-variant:normal;font-weight:normal;font-stretch:normal;font-size:53.33333588px;font-family:Ubuntu-Title;-inkscape-font-specification:Ubuntu-Title;fill:#ffffff;fill-opacity:1"
         id="path4909" />
      <path
         d="m 465.0248,578.64594 v -10.88 q 0,-6.50667 -3.73334,-9.81333 -2.45333,-1.92 -5.76,-1.92 -3.30667,0 -5.86667,1.70666 -3.94666,2.56 -4.8,8.32 -0.21333,1.28 -0.21333,2.66667 0,6.82667 4.16,10.34667 l 0.85333,0.64 q 2.56,1.70666 5.22667,1.70666 2.45333,-0.21333 4.48,-1.06666 -0.21333,3.84 -1.28,4.69333 -0.74667,0.53333 -4.05333,0.53333 -0.85334,-0.10666 -1.6,-0.32 l -1.28,-0.64 0.10666,0.32 q -0.85333,-1.38666 -2.45333,-1.38666 -1.70667,0 -2.45333,1.49333 -0.74667,1.49333 0.10666,2.77333 1.17334,2.02667 3.62667,2.77334 0.74667,0.10666 0.85333,0.10666 l 2.45334,0.53334 h 0.42666 q 3.94667,0 5.54667,-0.53334 1.17334,-0.53333 2.24,-1.28 3.41334,-3.09333 3.41334,-10.77333 z m -9.60001,-16.96 q 1.06667,0 1.81334,0.53333 2.24,1.06667 2.24,5.54667 v 3.41333 q 0,2.77334 -1.6,3.73334 l -0.53334,0.10666 q -1.17333,0.64 -2.45333,0.74667 -4.48,-0.64 -4.58667,-6.72 v -0.32 q 0,-4.58667 2.45334,-6.29333 1.17333,-0.64 2.13333,-0.64 0.21333,0 0.32,-0.10667 z"
         style="font-style:normal;font-variant:normal;font-weight:normal;font-stretch:normal;font-size:53.33333588px;font-family:Ubuntu-Title;-inkscape-font-specification:Ubuntu-Title;fill:#ffffff;fill-opacity:1"
         id="path4911" />
    </g>
  </g>
</svg>
